<mxfile host="app.diagrams.net" modified="2023-08-02T07:25:49.999Z" agent="Mozilla/5.0 (Macintosh; Intel Mac OS X 10_15_7) AppleWebKit/537.36 (KHTML, like Gecko) Chrome/115.0.0.0 Safari/537.36" version="21.6.6" etag="frNMLCUSOWBdec3_ZdiD" type="github">
  <diagram name="Page-1" id="uJ4b-yZAWPCq_gl8hg9j">
    <mxGraphModel>
      <root>
        <mxCell id="0" />
        <mxCell id="1" parent="0" />
      </root>
    </mxGraphModel>
  </diagram>
</mxfile>
